solid ascii
  facet normal 9.986295e-001 5.233596e-002 0.000000e+000
    outer loop
      vertex   -1.443365e+001 1.437003e+001 3.000000e+000
      vertex   -1.443365e+001 1.437003e+001 0.000000e+000
      vertex   -1.444460e+001 1.457909e+001 3.000000e+000
    endloop
  endfacet
  facet normal 9.876883e-001 1.564345e-001 0.000000e+000
    outer loop
      vertex   -1.443365e+001 1.437003e+001 3.000000e+000
      vertex   -1.440090e+001 1.416327e+001 3.000000e+000
      vertex   -1.443365e+001 1.437003e+001 0.000000e+000
    endloop
  endfacet
  facet normal 9.876883e-001 1.564345e-001 0.000000e+000
    outer loop
      vertex   -1.443365e+001 1.437003e+001 0.000000e+000
      vertex   -1.440090e+001 1.416327e+001 3.000000e+000
      vertex   -1.440090e+001 1.416327e+001 0.000000e+000
    endloop
  endfacet
  facet normal 9.659258e-001 2.588190e-001 -0.000000e+000
    outer loop
      vertex   -1.440090e+001 1.416327e+001 0.000000e+000
      vertex   -1.440090e+001 1.416327e+001 3.000000e+000
      vertex   -1.434671e+001 1.396106e+001 3.000000e+000
    endloop
  endfacet
  facet normal 9.335804e-001 3.583679e-001 -0.000000e+000
    outer loop
      vertex   -1.434671e+001 1.396106e+001 0.000000e+000
      vertex   -1.434671e+001 1.396106e+001 3.000000e+000
      vertex   -1.427169e+001 1.376562e+001 3.000000e+000
    endloop
  endfacet
  facet normal 8.910065e-001 4.539905e-001 -2.587655e-016
    outer loop
      vertex   -1.427169e+001 1.376562e+001 0.000000e+000
      vertex   -1.427169e+001 1.376562e+001 3.000000e+000
      vertex   -1.417665e+001 1.357909e+001 3.000000e+000
    endloop
  endfacet
  facet normal 8.386706e-001 5.446390e-001 -0.000000e+000
    outer loop
      vertex   -1.417665e+001 1.357909e+001 0.000000e+000
      vertex   -1.417665e+001 1.357909e+001 3.000000e+000
      vertex   -1.406264e+001 1.340352e+001 3.000000e+000
    endloop
  endfacet
  facet normal 7.771460e-001 6.293204e-001 -0.000000e+000
    outer loop
      vertex   -1.406264e+001 1.340352e+001 0.000000e+000
      vertex   -1.406264e+001 1.340352e+001 3.000000e+000
      vertex   -1.393089e+001 1.324083e+001 3.000000e+000
    endloop
  endfacet
  facet normal 7.071068e-001 7.071068e-001 -0.000000e+000
    outer loop
      vertex   -1.393089e+001 1.324083e+001 0.000000e+000
      vertex   -1.393089e+001 1.324083e+001 3.000000e+000
      vertex   -1.378286e+001 1.309280e+001 3.000000e+000
    endloop
  endfacet
  facet normal 6.293204e-001 7.771460e-001 4.601628e-016
    outer loop
      vertex   -1.378286e+001 1.309280e+001 0.000000e+000
      vertex   -1.378286e+001 1.309280e+001 3.000000e+000
      vertex   -1.362017e+001 1.296106e+001 3.000000e+000
    endloop
  endfacet
  facet normal 5.446390e-001 8.386706e-001 -0.000000e+000
    outer loop
      vertex   -1.362017e+001 1.296106e+001 0.000000e+000
      vertex   -1.362017e+001 1.296106e+001 3.000000e+000
      vertex   -1.344460e+001 1.284704e+001 3.000000e+000
    endloop
  endfacet
  facet normal 4.539905e-001 8.910065e-001 2.587655e-016
    outer loop
      vertex   -1.344460e+001 1.284704e+001 0.000000e+000
      vertex   -1.344460e+001 1.284704e+001 3.000000e+000
      vertex   -1.325808e+001 1.275200e+001 3.000000e+000
    endloop
  endfacet
  facet normal 3.583679e-001 9.335804e-001 -0.000000e+000
    outer loop
      vertex   -1.325808e+001 1.275200e+001 0.000000e+000
      vertex   -1.325808e+001 1.275200e+001 3.000000e+000
      vertex   -1.306264e+001 1.267698e+001 3.000000e+000
    endloop
  endfacet
  facet normal 2.588190e-001 9.659258e-001 -0.000000e+000
    outer loop
      vertex   -1.306264e+001 1.267698e+001 0.000000e+000
      vertex   -1.306264e+001 1.267698e+001 3.000000e+000
      vertex   -1.286043e+001 1.262279e+001 3.000000e+000
    endloop
  endfacet
  facet normal 1.564345e-001 9.876883e-001 -9.262781e-017
    outer loop
      vertex   -1.286043e+001 1.262279e+001 0.000000e+000
      vertex   -1.286043e+001 1.262279e+001 3.000000e+000
      vertex   -1.265366e+001 1.259005e+001 3.000000e+000
    endloop
  endfacet
  facet normal 5.233596e-002 9.986295e-001 -3.098911e-017
    outer loop
      vertex   -1.265366e+001 1.259005e+001 0.000000e+000
      vertex   -1.265366e+001 1.259005e+001 3.000000e+000
      vertex   -1.244460e+001 1.257909e+001 3.000000e+000
    endloop
  endfacet
  facet normal -5.233596e-002 9.986295e-001 0.000000e+000
    outer loop
      vertex   -1.244460e+001 1.257909e+001 0.000000e+000
      vertex   -1.244460e+001 1.257909e+001 3.000000e+000
      vertex   -1.223554e+001 1.259005e+001 3.000000e+000
    endloop
  endfacet
  facet normal -1.564345e-001 9.876883e-001 0.000000e+000
    outer loop
      vertex   -1.223554e+001 1.259005e+001 0.000000e+000
      vertex   -1.223554e+001 1.259005e+001 3.000000e+000
      vertex   -1.202878e+001 1.262279e+001 3.000000e+000
    endloop
  endfacet
  facet normal -2.588190e-001 9.659258e-001 0.000000e+000
    outer loop
      vertex   -1.202878e+001 1.262279e+001 0.000000e+000
      vertex   -1.202878e+001 1.262279e+001 3.000000e+000
      vertex   -1.182657e+001 1.267698e+001 3.000000e+000
    endloop
  endfacet
  facet normal -3.583679e-001 9.335804e-001 0.000000e+000
    outer loop
      vertex   -1.182657e+001 1.267698e+001 0.000000e+000
      vertex   -1.182657e+001 1.267698e+001 3.000000e+000
      vertex   -1.163113e+001 1.275200e+001 3.000000e+000
    endloop
  endfacet
  facet normal -4.539905e-001 8.910065e-001 -2.587655e-016
    outer loop
      vertex   -1.163113e+001 1.275200e+001 0.000000e+000
      vertex   -1.163113e+001 1.275200e+001 3.000000e+000
      vertex   -1.144460e+001 1.284704e+001 3.000000e+000
    endloop
  endfacet
  facet normal -5.446390e-001 8.386706e-001 0.000000e+000
    outer loop
      vertex   -1.144460e+001 1.284704e+001 0.000000e+000
      vertex   -1.144460e+001 1.284704e+001 3.000000e+000
      vertex   -1.126903e+001 1.296106e+001 3.000000e+000
    endloop
  endfacet
  facet normal -6.293204e-001 7.771460e-001 0.000000e+000
    outer loop
      vertex   -1.126903e+001 1.296106e+001 0.000000e+000
      vertex   -1.126903e+001 1.296106e+001 3.000000e+000
      vertex   -1.110634e+001 1.309280e+001 3.000000e+000
    endloop
  endfacet
  facet normal -7.071068e-001 7.071068e-001 0.000000e+000
    outer loop
      vertex   -1.110634e+001 1.309280e+001 0.000000e+000
      vertex   -1.110634e+001 1.309280e+001 3.000000e+000
      vertex   -1.095831e+001 1.324083e+001 3.000000e+000
    endloop
  endfacet
  facet normal -7.771460e-001 6.293204e-001 4.601628e-016
    outer loop
      vertex   -1.095831e+001 1.324083e+001 0.000000e+000
      vertex   -1.095831e+001 1.324083e+001 3.000000e+000
      vertex   -1.082657e+001 1.340352e+001 3.000000e+000
    endloop
  endfacet
  facet normal -8.386706e-001 5.446390e-001 0.000000e+000
    outer loop
      vertex   -1.082657e+001 1.340352e+001 0.000000e+000
      vertex   -1.082657e+001 1.340352e+001 3.000000e+000
      vertex   -1.071255e+001 1.357909e+001 3.000000e+000
    endloop
  endfacet
  facet normal -8.910065e-001 4.539905e-001 0.000000e+000
    outer loop
      vertex   -1.071255e+001 1.357909e+001 0.000000e+000
      vertex   -1.071255e+001 1.357909e+001 3.000000e+000
      vertex   -1.061751e+001 1.376562e+001 3.000000e+000
    endloop
  endfacet
  facet normal -9.335804e-001 3.583679e-001 0.000000e+000
    outer loop
      vertex   -1.061751e+001 1.376562e+001 0.000000e+000
      vertex   -1.061751e+001 1.376562e+001 3.000000e+000
      vertex   -1.054249e+001 1.396106e+001 3.000000e+000
    endloop
  endfacet
  facet normal -9.659258e-001 2.588190e-001 0.000000e+000
    outer loop
      vertex   -1.054249e+001 1.396106e+001 0.000000e+000
      vertex   -1.054249e+001 1.396106e+001 3.000000e+000
      vertex   -1.048831e+001 1.416327e+001 3.000000e+000
    endloop
  endfacet
  facet normal -9.876883e-001 1.564345e-001 -9.262781e-017
    outer loop
      vertex   -1.048831e+001 1.416327e+001 0.000000e+000
      vertex   -1.048831e+001 1.416327e+001 3.000000e+000
      vertex   -1.045556e+001 1.437003e+001 3.000000e+000
    endloop
  endfacet
  facet normal -9.986295e-001 5.233596e-002 -3.098911e-017
    outer loop
      vertex   -1.045556e+001 1.437003e+001 0.000000e+000
      vertex   -1.045556e+001 1.437003e+001 3.000000e+000
      vertex   -1.044460e+001 1.457909e+001 3.000000e+000
    endloop
  endfacet
  facet normal -9.986295e-001 -5.233596e-002 0.000000e+000
    outer loop
      vertex   -1.044460e+001 1.457909e+001 0.000000e+000
      vertex   -1.044460e+001 1.457909e+001 3.000000e+000
      vertex   -1.045556e+001 1.478815e+001 3.000000e+000
    endloop
  endfacet
  facet normal -9.876883e-001 -1.564345e-001 9.262781e-017
    outer loop
      vertex   -1.045556e+001 1.478815e+001 0.000000e+000
      vertex   -1.045556e+001 1.478815e+001 3.000000e+000
      vertex   -1.048831e+001 1.499491e+001 3.000000e+000
    endloop
  endfacet
  facet normal -9.659258e-001 -2.588190e-001 1.532517e-016
    outer loop
      vertex   -1.048831e+001 1.499491e+001 0.000000e+000
      vertex   -1.048831e+001 1.499491e+001 3.000000e+000
      vertex   -1.054249e+001 1.519712e+001 3.000000e+000
    endloop
  endfacet
  facet normal -9.335804e-001 -3.583679e-001 0.000000e+000
    outer loop
      vertex   -1.054249e+001 1.519712e+001 0.000000e+000
      vertex   -1.054249e+001 1.519712e+001 3.000000e+000
      vertex   -1.061751e+001 1.539256e+001 3.000000e+000
    endloop
  endfacet
  facet normal -8.910065e-001 -4.539905e-001 0.000000e+000
    outer loop
      vertex   -1.061751e+001 1.539256e+001 0.000000e+000
      vertex   -1.061751e+001 1.539256e+001 3.000000e+000
      vertex   -1.071255e+001 1.557909e+001 3.000000e+000
    endloop
  endfacet
  facet normal -8.386706e-001 -5.446390e-001 0.000000e+000
    outer loop
      vertex   -1.071255e+001 1.557909e+001 0.000000e+000
      vertex   -1.071255e+001 1.557909e+001 3.000000e+000
      vertex   -1.082657e+001 1.575466e+001 3.000000e+000
    endloop
  endfacet
  facet normal -7.771460e-001 -6.293204e-001 0.000000e+000
    outer loop
      vertex   -1.082657e+001 1.575466e+001 0.000000e+000
      vertex   -1.082657e+001 1.575466e+001 3.000000e+000
      vertex   -1.095831e+001 1.591735e+001 3.000000e+000
    endloop
  endfacet
  facet normal -7.071068e-001 -7.071068e-001 -4.186913e-016
    outer loop
      vertex   -1.095831e+001 1.591735e+001 0.000000e+000
      vertex   -1.095831e+001 1.591735e+001 3.000000e+000
      vertex   -1.110634e+001 1.606538e+001 3.000000e+000
    endloop
  endfacet
  facet normal -6.293204e-001 -7.771460e-001 0.000000e+000
    outer loop
      vertex   -1.110634e+001 1.606538e+001 0.000000e+000
      vertex   -1.110634e+001 1.606538e+001 3.000000e+000
      vertex   -1.126903e+001 1.619712e+001 3.000000e+000
    endloop
  endfacet
  facet normal -5.446390e-001 -8.386706e-001 0.000000e+000
    outer loop
      vertex   -1.126903e+001 1.619712e+001 0.000000e+000
      vertex   -1.126903e+001 1.619712e+001 3.000000e+000
      vertex   -1.144460e+001 1.631114e+001 3.000000e+000
    endloop
  endfacet
  facet normal -4.539905e-001 -8.910065e-001 0.000000e+000
    outer loop
      vertex   -1.144460e+001 1.631114e+001 0.000000e+000
      vertex   -1.144460e+001 1.631114e+001 3.000000e+000
      vertex   -1.163113e+001 1.640618e+001 3.000000e+000
    endloop
  endfacet
  facet normal -3.583679e-001 -9.335804e-001 -2.121965e-016
    outer loop
      vertex   -1.163113e+001 1.640618e+001 0.000000e+000
      vertex   -1.163113e+001 1.640618e+001 3.000000e+000
      vertex   -1.182657e+001 1.648120e+001 3.000000e+000
    endloop
  endfacet
  facet normal -2.588190e-001 -9.659258e-001 0.000000e+000
    outer loop
      vertex   -1.182657e+001 1.648120e+001 0.000000e+000
      vertex   -1.182657e+001 1.648120e+001 3.000000e+000
      vertex   -1.202878e+001 1.653538e+001 3.000000e+000
    endloop
  endfacet
  facet normal -1.564345e-001 -9.876883e-001 0.000000e+000
    outer loop
      vertex   -1.202878e+001 1.653538e+001 0.000000e+000
      vertex   -1.202878e+001 1.653538e+001 3.000000e+000
      vertex   -1.223554e+001 1.656813e+001 3.000000e+000
    endloop
  endfacet
  facet normal -5.233596e-002 -9.986295e-001 0.000000e+000
    outer loop
      vertex   -1.223554e+001 1.656813e+001 0.000000e+000
      vertex   -1.223554e+001 1.656813e+001 3.000000e+000
      vertex   -1.244460e+001 1.657909e+001 3.000000e+000
    endloop
  endfacet
  facet normal 5.233596e-002 -9.986295e-001 0.000000e+000
    outer loop
      vertex   -1.244460e+001 1.657909e+001 0.000000e+000
      vertex   -1.244460e+001 1.657909e+001 3.000000e+000
      vertex   -1.265366e+001 1.656813e+001 3.000000e+000
    endloop
  endfacet
  facet normal 1.564345e-001 -9.876883e-001 9.262781e-017
    outer loop
      vertex   -1.265366e+001 1.656813e+001 0.000000e+000
      vertex   -1.265366e+001 1.656813e+001 3.000000e+000
      vertex   -1.286043e+001 1.653538e+001 3.000000e+000
    endloop
  endfacet
  facet normal 2.588190e-001 -9.659258e-001 -9.906343e-016
    outer loop
      vertex   -1.286043e+001 1.653538e+001 0.000000e+000
      vertex   -1.286043e+001 1.653538e+001 3.000000e+000
      vertex   -1.306264e+001 1.648120e+001 3.000000e+000
    endloop
  endfacet
  facet normal 3.583679e-001 -9.335804e-001 0.000000e+000
    outer loop
      vertex   -1.306264e+001 1.648120e+001 0.000000e+000
      vertex   -1.306264e+001 1.648120e+001 3.000000e+000
      vertex   -1.325808e+001 1.640618e+001 3.000000e+000
    endloop
  endfacet
  facet normal 4.539905e-001 -8.910065e-001 0.000000e+000
    outer loop
      vertex   -1.325808e+001 1.640618e+001 0.000000e+000
      vertex   -1.325808e+001 1.640618e+001 3.000000e+000
      vertex   -1.344460e+001 1.631114e+001 3.000000e+000
    endloop
  endfacet
  facet normal 5.446390e-001 -8.386706e-001 3.224911e-016
    outer loop
      vertex   -1.344460e+001 1.631114e+001 0.000000e+000
      vertex   -1.344460e+001 1.631114e+001 3.000000e+000
      vertex   -1.362017e+001 1.619712e+001 3.000000e+000
    endloop
  endfacet
  facet normal 6.293204e-001 -7.771460e-001 0.000000e+000
    outer loop
      vertex   -1.362017e+001 1.619712e+001 0.000000e+000
      vertex   -1.362017e+001 1.619712e+001 3.000000e+000
      vertex   -1.378286e+001 1.606538e+001 3.000000e+000
    endloop
  endfacet
  facet normal 7.071068e-001 -7.071068e-001 0.000000e+000
    outer loop
      vertex   -1.378286e+001 1.606538e+001 0.000000e+000
      vertex   -1.378286e+001 1.606538e+001 3.000000e+000
      vertex   -1.393089e+001 1.591735e+001 3.000000e+000
    endloop
  endfacet
  facet normal 7.771460e-001 -6.293204e-001 0.000000e+000
    outer loop
      vertex   -1.393089e+001 1.591735e+001 0.000000e+000
      vertex   -1.393089e+001 1.591735e+001 3.000000e+000
      vertex   -1.406264e+001 1.575466e+001 3.000000e+000
    endloop
  endfacet
  facet normal 8.386706e-001 -5.446390e-001 0.000000e+000
    outer loop
      vertex   -1.406264e+001 1.575466e+001 0.000000e+000
      vertex   -1.406264e+001 1.575466e+001 3.000000e+000
      vertex   -1.417665e+001 1.557909e+001 3.000000e+000
    endloop
  endfacet
  facet normal 8.910065e-001 -4.539905e-001 0.000000e+000
    outer loop
      vertex   -1.417665e+001 1.557909e+001 0.000000e+000
      vertex   -1.417665e+001 1.557909e+001 3.000000e+000
      vertex   -1.427169e+001 1.539256e+001 3.000000e+000
    endloop
  endfacet
  facet normal 9.335804e-001 -3.583679e-001 3.405942e-016
    outer loop
      vertex   -1.427169e+001 1.539256e+001 0.000000e+000
      vertex   -1.427169e+001 1.539256e+001 3.000000e+000
      vertex   -1.434671e+001 1.519712e+001 3.000000e+000
    endloop
  endfacet
  facet normal 9.659258e-001 -2.588190e-001 0.000000e+000
    outer loop
      vertex   -1.434671e+001 1.519712e+001 0.000000e+000
      vertex   -1.434671e+001 1.519712e+001 3.000000e+000
      vertex   -1.440090e+001 1.499491e+001 3.000000e+000
    endloop
  endfacet
  facet normal 9.876883e-001 -1.564345e-001 0.000000e+000
    outer loop
      vertex   -1.440090e+001 1.499491e+001 0.000000e+000
      vertex   -1.440090e+001 1.499491e+001 3.000000e+000
      vertex   -1.443365e+001 1.478815e+001 3.000000e+000
    endloop
  endfacet
  facet normal 9.986295e-001 -5.233596e-002 0.000000e+000
    outer loop
      vertex   -1.443365e+001 1.478815e+001 0.000000e+000
      vertex   -1.443365e+001 1.478815e+001 3.000000e+000
      vertex   -1.444460e+001 1.457909e+001 0.000000e+000
    endloop
  endfacet
  facet normal 9.876883e-001 -1.564345e-001 0.000000e+000
    outer loop
      vertex   -1.443365e+001 1.478815e+001 0.000000e+000
      vertex   -1.440090e+001 1.499491e+001 0.000000e+000
      vertex   -1.443365e+001 1.478815e+001 3.000000e+000
    endloop
  endfacet
  facet normal 9.659258e-001 2.588190e-001 0.000000e+000
    outer loop
      vertex   -1.440090e+001 1.416327e+001 0.000000e+000
      vertex   -1.434671e+001 1.396106e+001 3.000000e+000
      vertex   -1.434671e+001 1.396106e+001 0.000000e+000
    endloop
  endfacet
  facet normal 9.335804e-001 3.583679e-001 -3.405942e-016
    outer loop
      vertex   -1.434671e+001 1.396106e+001 0.000000e+000
      vertex   -1.427169e+001 1.376562e+001 3.000000e+000
      vertex   -1.427169e+001 1.376562e+001 0.000000e+000
    endloop
  endfacet
  facet normal 8.910065e-001 4.539905e-001 0.000000e+000
    outer loop
      vertex   -1.427169e+001 1.376562e+001 0.000000e+000
      vertex   -1.417665e+001 1.357909e+001 3.000000e+000
      vertex   -1.417665e+001 1.357909e+001 0.000000e+000
    endloop
  endfacet
  facet normal 8.386706e-001 5.446390e-001 0.000000e+000
    outer loop
      vertex   -1.417665e+001 1.357909e+001 0.000000e+000
      vertex   -1.406264e+001 1.340352e+001 3.000000e+000
      vertex   -1.406264e+001 1.340352e+001 0.000000e+000
    endloop
  endfacet
  facet normal 7.771460e-001 6.293204e-001 0.000000e+000
    outer loop
      vertex   -1.406264e+001 1.340352e+001 0.000000e+000
      vertex   -1.393089e+001 1.324083e+001 3.000000e+000
      vertex   -1.393089e+001 1.324083e+001 0.000000e+000
    endloop
  endfacet
  facet normal 7.071068e-001 7.071068e-001 4.186913e-016
    outer loop
      vertex   -1.393089e+001 1.324083e+001 0.000000e+000
      vertex   -1.378286e+001 1.309280e+001 3.000000e+000
      vertex   -1.378286e+001 1.309280e+001 0.000000e+000
    endloop
  endfacet
  facet normal 6.293204e-001 7.771460e-001 0.000000e+000
    outer loop
      vertex   -1.378286e+001 1.309280e+001 0.000000e+000
      vertex   -1.362017e+001 1.296106e+001 3.000000e+000
      vertex   -1.362017e+001 1.296106e+001 0.000000e+000
    endloop
  endfacet
  facet normal 5.446390e-001 8.386706e-001 1.741016e-016
    outer loop
      vertex   -1.362017e+001 1.296106e+001 0.000000e+000
      vertex   -1.344460e+001 1.284704e+001 3.000000e+000
      vertex   -1.344460e+001 1.284704e+001 0.000000e+000
    endloop
  endfacet
  facet normal 4.539905e-001 8.910065e-001 0.000000e+000
    outer loop
      vertex   -1.344460e+001 1.284704e+001 0.000000e+000
      vertex   -1.325808e+001 1.275200e+001 3.000000e+000
      vertex   -1.325808e+001 1.275200e+001 0.000000e+000
    endloop
  endfacet
  facet normal 3.583679e-001 9.335804e-001 0.000000e+000
    outer loop
      vertex   -1.325808e+001 1.275200e+001 0.000000e+000
      vertex   -1.306264e+001 1.267698e+001 3.000000e+000
      vertex   -1.306264e+001 1.267698e+001 0.000000e+000
    endloop
  endfacet
  facet normal 2.588190e-001 9.659258e-001 -1.532517e-016
    outer loop
      vertex   -1.306264e+001 1.267698e+001 0.000000e+000
      vertex   -1.286043e+001 1.262279e+001 3.000000e+000
      vertex   -1.286043e+001 1.262279e+001 0.000000e+000
    endloop
  endfacet
  facet normal 1.564345e-001 9.876883e-001 -9.262781e-017
    outer loop
      vertex   -1.286043e+001 1.262279e+001 0.000000e+000
      vertex   -1.265366e+001 1.259005e+001 3.000000e+000
      vertex   -1.265366e+001 1.259005e+001 0.000000e+000
    endloop
  endfacet
  facet normal 5.233596e-002 9.986295e-001 0.000000e+000
    outer loop
      vertex   -1.265366e+001 1.259005e+001 0.000000e+000
      vertex   -1.244460e+001 1.257909e+001 3.000000e+000
      vertex   -1.244460e+001 1.257909e+001 0.000000e+000
    endloop
  endfacet
  facet normal -5.233596e-002 9.986295e-001 0.000000e+000
    outer loop
      vertex   -1.244460e+001 1.257909e+001 0.000000e+000
      vertex   -1.223554e+001 1.259005e+001 3.000000e+000
      vertex   -1.223554e+001 1.259005e+001 0.000000e+000
    endloop
  endfacet
  facet normal -1.564345e-001 9.876883e-001 0.000000e+000
    outer loop
      vertex   -1.223554e+001 1.259005e+001 0.000000e+000
      vertex   -1.202878e+001 1.262279e+001 3.000000e+000
      vertex   -1.202878e+001 1.262279e+001 0.000000e+000
    endloop
  endfacet
  facet normal -2.588190e-001 9.659258e-001 0.000000e+000
    outer loop
      vertex   -1.202878e+001 1.262279e+001 0.000000e+000
      vertex   -1.182657e+001 1.267698e+001 3.000000e+000
      vertex   -1.182657e+001 1.267698e+001 0.000000e+000
    endloop
  endfacet
  facet normal -3.583679e-001 9.335804e-001 -3.405942e-016
    outer loop
      vertex   -1.182657e+001 1.267698e+001 0.000000e+000
      vertex   -1.163113e+001 1.275200e+001 3.000000e+000
      vertex   -1.163113e+001 1.275200e+001 0.000000e+000
    endloop
  endfacet
  facet normal -4.539905e-001 8.910065e-001 0.000000e+000
    outer loop
      vertex   -1.163113e+001 1.275200e+001 0.000000e+000
      vertex   -1.144460e+001 1.284704e+001 3.000000e+000
      vertex   -1.144460e+001 1.284704e+001 0.000000e+000
    endloop
  endfacet
  facet normal -5.446390e-001 8.386706e-001 0.000000e+000
    outer loop
      vertex   -1.144460e+001 1.284704e+001 0.000000e+000
      vertex   -1.126903e+001 1.296106e+001 3.000000e+000
      vertex   -1.126903e+001 1.296106e+001 0.000000e+000
    endloop
  endfacet
  facet normal -6.293204e-001 7.771460e-001 0.000000e+000
    outer loop
      vertex   -1.126903e+001 1.296106e+001 0.000000e+000
      vertex   -1.110634e+001 1.309280e+001 3.000000e+000
      vertex   -1.110634e+001 1.309280e+001 0.000000e+000
    endloop
  endfacet
  facet normal -7.071068e-001 7.071068e-001 4.186913e-016
    outer loop
      vertex   -1.110634e+001 1.309280e+001 0.000000e+000
      vertex   -1.095831e+001 1.324083e+001 3.000000e+000
      vertex   -1.095831e+001 1.324083e+001 0.000000e+000
    endloop
  endfacet
  facet normal -7.771460e-001 6.293204e-001 0.000000e+000
    outer loop
      vertex   -1.095831e+001 1.324083e+001 0.000000e+000
      vertex   -1.082657e+001 1.340352e+001 3.000000e+000
      vertex   -1.082657e+001 1.340352e+001 0.000000e+000
    endloop
  endfacet
  facet normal -8.386706e-001 5.446390e-001 0.000000e+000
    outer loop
      vertex   -1.082657e+001 1.340352e+001 0.000000e+000
      vertex   -1.071255e+001 1.357909e+001 3.000000e+000
      vertex   -1.071255e+001 1.357909e+001 0.000000e+000
    endloop
  endfacet
  facet normal -8.910065e-001 4.539905e-001 0.000000e+000
    outer loop
      vertex   -1.071255e+001 1.357909e+001 0.000000e+000
      vertex   -1.061751e+001 1.376562e+001 3.000000e+000
      vertex   -1.061751e+001 1.376562e+001 0.000000e+000
    endloop
  endfacet
  facet normal -9.335804e-001 3.583679e-001 0.000000e+000
    outer loop
      vertex   -1.061751e+001 1.376562e+001 0.000000e+000
      vertex   -1.054249e+001 1.396106e+001 3.000000e+000
      vertex   -1.054249e+001 1.396106e+001 0.000000e+000
    endloop
  endfacet
  facet normal -9.659258e-001 2.588190e-001 -1.532517e-016
    outer loop
      vertex   -1.054249e+001 1.396106e+001 0.000000e+000
      vertex   -1.048831e+001 1.416327e+001 3.000000e+000
      vertex   -1.048831e+001 1.416327e+001 0.000000e+000
    endloop
  endfacet
  facet normal -9.876883e-001 1.564345e-001 -9.262781e-017
    outer loop
      vertex   -1.048831e+001 1.416327e+001 0.000000e+000
      vertex   -1.045556e+001 1.437003e+001 3.000000e+000
      vertex   -1.045556e+001 1.437003e+001 0.000000e+000
    endloop
  endfacet
  facet normal -9.986295e-001 5.233596e-002 0.000000e+000
    outer loop
      vertex   -1.045556e+001 1.437003e+001 0.000000e+000
      vertex   -1.044460e+001 1.457909e+001 3.000000e+000
      vertex   -1.044460e+001 1.457909e+001 0.000000e+000
    endloop
  endfacet
  facet normal -9.986295e-001 -5.233596e-002 3.098911e-017
    outer loop
      vertex   -1.044460e+001 1.457909e+001 0.000000e+000
      vertex   -1.045556e+001 1.478815e+001 3.000000e+000
      vertex   -1.045556e+001 1.478815e+001 0.000000e+000
    endloop
  endfacet
  facet normal -9.876883e-001 -1.564345e-001 9.262781e-017
    outer loop
      vertex   -1.045556e+001 1.478815e+001 0.000000e+000
      vertex   -1.048831e+001 1.499491e+001 3.000000e+000
      vertex   -1.048831e+001 1.499491e+001 0.000000e+000
    endloop
  endfacet
  facet normal -9.659258e-001 -2.588190e-001 -0.000000e+000
    outer loop
      vertex   -1.048831e+001 1.499491e+001 0.000000e+000
      vertex   -1.054249e+001 1.519712e+001 3.000000e+000
      vertex   -1.054249e+001 1.519712e+001 0.000000e+000
    endloop
  endfacet
  facet normal -9.335804e-001 -3.583679e-001 -0.000000e+000
    outer loop
      vertex   -1.054249e+001 1.519712e+001 0.000000e+000
      vertex   -1.061751e+001 1.539256e+001 3.000000e+000
      vertex   -1.061751e+001 1.539256e+001 0.000000e+000
    endloop
  endfacet
  facet normal -8.910065e-001 -4.539905e-001 -0.000000e+000
    outer loop
      vertex   -1.061751e+001 1.539256e+001 0.000000e+000
      vertex   -1.071255e+001 1.557909e+001 3.000000e+000
      vertex   -1.071255e+001 1.557909e+001 0.000000e+000
    endloop
  endfacet
  facet normal -8.386706e-001 -5.446390e-001 -0.000000e+000
    outer loop
      vertex   -1.071255e+001 1.557909e+001 0.000000e+000
      vertex   -1.082657e+001 1.575466e+001 3.000000e+000
      vertex   -1.082657e+001 1.575466e+001 0.000000e+000
    endloop
  endfacet
  facet normal -7.771460e-001 -6.293204e-001 -4.601628e-016
    outer loop
      vertex   -1.082657e+001 1.575466e+001 0.000000e+000
      vertex   -1.095831e+001 1.591735e+001 3.000000e+000
      vertex   -1.095831e+001 1.591735e+001 0.000000e+000
    endloop
  endfacet
  facet normal -7.071068e-001 -7.071068e-001 -0.000000e+000
    outer loop
      vertex   -1.095831e+001 1.591735e+001 0.000000e+000
      vertex   -1.110634e+001 1.606538e+001 3.000000e+000
      vertex   -1.110634e+001 1.606538e+001 0.000000e+000
    endloop
  endfacet
  facet normal -6.293204e-001 -7.771460e-001 -0.000000e+000
    outer loop
      vertex   -1.110634e+001 1.606538e+001 0.000000e+000
      vertex   -1.126903e+001 1.619712e+001 3.000000e+000
      vertex   -1.126903e+001 1.619712e+001 0.000000e+000
    endloop
  endfacet
  facet normal -5.446390e-001 -8.386706e-001 -0.000000e+000
    outer loop
      vertex   -1.126903e+001 1.619712e+001 0.000000e+000
      vertex   -1.144460e+001 1.631114e+001 3.000000e+000
      vertex   -1.144460e+001 1.631114e+001 0.000000e+000
    endloop
  endfacet
  facet normal -4.539905e-001 -8.910065e-001 -2.688164e-016
    outer loop
      vertex   -1.144460e+001 1.631114e+001 0.000000e+000
      vertex   -1.163113e+001 1.640618e+001 3.000000e+000
      vertex   -1.163113e+001 1.640618e+001 0.000000e+000
    endloop
  endfacet
  facet normal -3.583679e-001 -9.335804e-001 -0.000000e+000
    outer loop
      vertex   -1.163113e+001 1.640618e+001 0.000000e+000
      vertex   -1.182657e+001 1.648120e+001 3.000000e+000
      vertex   -1.182657e+001 1.648120e+001 0.000000e+000
    endloop
  endfacet
  facet normal -2.588190e-001 -9.659258e-001 -0.000000e+000
    outer loop
      vertex   -1.182657e+001 1.648120e+001 0.000000e+000
      vertex   -1.202878e+001 1.653538e+001 3.000000e+000
      vertex   -1.202878e+001 1.653538e+001 0.000000e+000
    endloop
  endfacet
  facet normal -1.564345e-001 -9.876883e-001 -0.000000e+000
    outer loop
      vertex   -1.202878e+001 1.653538e+001 0.000000e+000
      vertex   -1.223554e+001 1.656813e+001 3.000000e+000
      vertex   -1.223554e+001 1.656813e+001 0.000000e+000
    endloop
  endfacet
  facet normal -5.233596e-002 -9.986295e-001 -0.000000e+000
    outer loop
      vertex   -1.223554e+001 1.656813e+001 0.000000e+000
      vertex   -1.244460e+001 1.657909e+001 3.000000e+000
      vertex   -1.244460e+001 1.657909e+001 0.000000e+000
    endloop
  endfacet
  facet normal 5.233596e-002 -9.986295e-001 3.098911e-017
    outer loop
      vertex   -1.244460e+001 1.657909e+001 0.000000e+000
      vertex   -1.265366e+001 1.656813e+001 3.000000e+000
      vertex   -1.265366e+001 1.656813e+001 0.000000e+000
    endloop
  endfacet
  facet normal 1.564345e-001 -9.876883e-001 -1.077030e-015
    outer loop
      vertex   -1.265366e+001 1.656813e+001 0.000000e+000
      vertex   -1.286043e+001 1.653538e+001 3.000000e+000
      vertex   -1.286043e+001 1.653538e+001 0.000000e+000
    endloop
  endfacet
  facet normal 2.588190e-001 -9.659258e-001 0.000000e+000
    outer loop
      vertex   -1.286043e+001 1.653538e+001 0.000000e+000
      vertex   -1.306264e+001 1.648120e+001 3.000000e+000
      vertex   -1.306264e+001 1.648120e+001 0.000000e+000
    endloop
  endfacet
  facet normal 3.583679e-001 -9.335804e-001 0.000000e+000
    outer loop
      vertex   -1.306264e+001 1.648120e+001 0.000000e+000
      vertex   -1.325808e+001 1.640618e+001 3.000000e+000
      vertex   -1.325808e+001 1.640618e+001 0.000000e+000
    endloop
  endfacet
  facet normal 4.539905e-001 -8.910065e-001 2.688164e-016
    outer loop
      vertex   -1.325808e+001 1.640618e+001 0.000000e+000
      vertex   -1.344460e+001 1.631114e+001 3.000000e+000
      vertex   -1.344460e+001 1.631114e+001 0.000000e+000
    endloop
  endfacet
  facet normal 5.446390e-001 -8.386706e-001 0.000000e+000
    outer loop
      vertex   -1.344460e+001 1.631114e+001 0.000000e+000
      vertex   -1.362017e+001 1.619712e+001 3.000000e+000
      vertex   -1.362017e+001 1.619712e+001 0.000000e+000
    endloop
  endfacet
  facet normal 6.293204e-001 -7.771460e-001 0.000000e+000
    outer loop
      vertex   -1.362017e+001 1.619712e+001 0.000000e+000
      vertex   -1.378286e+001 1.606538e+001 3.000000e+000
      vertex   -1.378286e+001 1.606538e+001 0.000000e+000
    endloop
  endfacet
  facet normal 7.071068e-001 -7.071068e-001 0.000000e+000
    outer loop
      vertex   -1.378286e+001 1.606538e+001 0.000000e+000
      vertex   -1.393089e+001 1.591735e+001 3.000000e+000
      vertex   -1.393089e+001 1.591735e+001 0.000000e+000
    endloop
  endfacet
  facet normal 7.771460e-001 -6.293204e-001 0.000000e+000
    outer loop
      vertex   -1.393089e+001 1.591735e+001 0.000000e+000
      vertex   -1.406264e+001 1.575466e+001 3.000000e+000
      vertex   -1.406264e+001 1.575466e+001 0.000000e+000
    endloop
  endfacet
  facet normal 8.386706e-001 -5.446390e-001 0.000000e+000
    outer loop
      vertex   -1.406264e+001 1.575466e+001 0.000000e+000
      vertex   -1.417665e+001 1.557909e+001 3.000000e+000
      vertex   -1.417665e+001 1.557909e+001 0.000000e+000
    endloop
  endfacet
  facet normal 8.910065e-001 -4.539905e-001 2.587655e-016
    outer loop
      vertex   -1.417665e+001 1.557909e+001 0.000000e+000
      vertex   -1.427169e+001 1.539256e+001 3.000000e+000
      vertex   -1.427169e+001 1.539256e+001 0.000000e+000
    endloop
  endfacet
  facet normal 9.335804e-001 -3.583679e-001 0.000000e+000
    outer loop
      vertex   -1.427169e+001 1.539256e+001 0.000000e+000
      vertex   -1.434671e+001 1.519712e+001 3.000000e+000
      vertex   -1.434671e+001 1.519712e+001 0.000000e+000
    endloop
  endfacet
  facet normal 9.659258e-001 -2.588190e-001 0.000000e+000
    outer loop
      vertex   -1.434671e+001 1.519712e+001 0.000000e+000
      vertex   -1.440090e+001 1.499491e+001 3.000000e+000
      vertex   -1.440090e+001 1.499491e+001 0.000000e+000
    endloop
  endfacet
  facet normal 9.986295e-001 -5.233596e-002 0.000000e+000
    outer loop
      vertex   -1.443365e+001 1.478815e+001 3.000000e+000
      vertex   -1.444460e+001 1.457909e+001 3.000000e+000
      vertex   -1.444460e+001 1.457909e+001 0.000000e+000
    endloop
  endfacet
  facet normal 9.986295e-001 5.233596e-002 -0.000000e+000
    outer loop
      vertex   -1.444460e+001 1.457909e+001 0.000000e+000
      vertex   -1.444460e+001 1.457909e+001 3.000000e+000
      vertex   -1.443365e+001 1.437003e+001 0.000000e+000
    endloop
  endfacet
  facet normal 5.000000e-001 -8.660254e-001 0.000000e+000
    outer loop
      vertex   -1.244460e+001 1.053909e+001 0.000000e+000
      vertex   -8.945859e+000 1.255909e+001 0.000000e+000
      vertex   -1.244460e+001 1.053909e+001 3.000000e+000
    endloop
  endfacet
  facet normal 5.000000e-001 -8.660254e-001 0.000000e+000
    outer loop
      vertex   -1.244460e+001 1.053909e+001 3.000000e+000
      vertex   -8.945859e+000 1.255909e+001 0.000000e+000
      vertex   -8.945859e+000 1.255909e+001 3.000000e+000
    endloop
  endfacet
  facet normal -5.000000e-001 -8.660254e-001 0.000000e+000
    outer loop
      vertex   -1.594334e+001 1.255909e+001 0.000000e+000
      vertex   -1.244460e+001 1.053909e+001 0.000000e+000
      vertex   -1.594334e+001 1.255909e+001 3.000000e+000
    endloop
  endfacet
  facet normal -5.000000e-001 -8.660254e-001 0.000000e+000
    outer loop
      vertex   -1.594334e+001 1.255909e+001 3.000000e+000
      vertex   -1.244460e+001 1.053909e+001 0.000000e+000
      vertex   -1.244460e+001 1.053909e+001 3.000000e+000
    endloop
  endfacet
  facet normal -1.000000e+000 0.000000e+000 0.000000e+000
    outer loop
      vertex   -1.594334e+001 1.659909e+001 0.000000e+000
      vertex   -1.594334e+001 1.255909e+001 0.000000e+000
      vertex   -1.594334e+001 1.659909e+001 3.000000e+000
    endloop
  endfacet
  facet normal -1.000000e+000 -0.000000e+000 0.000000e+000
    outer loop
      vertex   -1.594334e+001 1.659909e+001 3.000000e+000
      vertex   -1.594334e+001 1.255909e+001 0.000000e+000
      vertex   -1.594334e+001 1.255909e+001 3.000000e+000
    endloop
  endfacet
  facet normal -5.000000e-001 8.660254e-001 0.000000e+000
    outer loop
      vertex   -1.244460e+001 1.861909e+001 0.000000e+000
      vertex   -1.594334e+001 1.659909e+001 0.000000e+000
      vertex   -1.244460e+001 1.861909e+001 3.000000e+000
    endloop
  endfacet
  facet normal -5.000000e-001 8.660254e-001 0.000000e+000
    outer loop
      vertex   -1.244460e+001 1.861909e+001 3.000000e+000
      vertex   -1.594334e+001 1.659909e+001 0.000000e+000
      vertex   -1.594334e+001 1.659909e+001 3.000000e+000
    endloop
  endfacet
  facet normal 5.000000e-001 8.660254e-001 0.000000e+000
    outer loop
      vertex   -8.945859e+000 1.659909e+001 0.000000e+000
      vertex   -1.244460e+001 1.861909e+001 0.000000e+000
      vertex   -8.945859e+000 1.659909e+001 3.000000e+000
    endloop
  endfacet
  facet normal 5.000000e-001 8.660254e-001 -0.000000e+000
    outer loop
      vertex   -8.945859e+000 1.659909e+001 3.000000e+000
      vertex   -1.244460e+001 1.861909e+001 0.000000e+000
      vertex   -1.244460e+001 1.861909e+001 3.000000e+000
    endloop
  endfacet
  facet normal 1.000000e+000 0.000000e+000 -0.000000e+000
    outer loop
      vertex   -8.945859e+000 1.255909e+001 0.000000e+000
      vertex   -8.945859e+000 1.659909e+001 0.000000e+000
      vertex   -8.945859e+000 1.255909e+001 3.000000e+000
    endloop
  endfacet
  facet normal 1.000000e+000 -0.000000e+000 0.000000e+000
    outer loop
      vertex   -8.945859e+000 1.255909e+001 3.000000e+000
      vertex   -8.945859e+000 1.659909e+001 0.000000e+000
      vertex   -8.945859e+000 1.659909e+001 3.000000e+000
    endloop
  endfacet
  facet normal 0.000000e+000 0.000000e+000 1.000000e+000
    outer loop
      vertex   -1.443365e+001 1.478815e+001 3.000000e+000
      vertex   -1.594334e+001 1.659909e+001 3.000000e+000
      vertex   -1.444460e+001 1.457909e+001 3.000000e+000
    endloop
  endfacet
  facet normal 0.000000e+000 -0.000000e+000 1.000000e+000
    outer loop
      vertex   -1.443365e+001 1.478815e+001 3.000000e+000
      vertex   -1.440090e+001 1.499491e+001 3.000000e+000
      vertex   -1.594334e+001 1.659909e+001 3.000000e+000
    endloop
  endfacet
  facet normal -0.000000e+000 0.000000e+000 1.000000e+000
    outer loop
      vertex   -1.594334e+001 1.659909e+001 3.000000e+000
      vertex   -1.440090e+001 1.499491e+001 3.000000e+000
      vertex   -1.434671e+001 1.519712e+001 3.000000e+000
    endloop
  endfacet
  facet normal 0.000000e+000 0.000000e+000 1.000000e+000
    outer loop
      vertex   -1.427169e+001 1.539256e+001 3.000000e+000
      vertex   -1.594334e+001 1.659909e+001 3.000000e+000
      vertex   -1.434671e+001 1.519712e+001 3.000000e+000
    endloop
  endfacet
  facet normal 0.000000e+000 -0.000000e+000 1.000000e+000
    outer loop
      vertex   -1.427169e+001 1.539256e+001 3.000000e+000
      vertex   -1.417665e+001 1.557909e+001 3.000000e+000
      vertex   -1.594334e+001 1.659909e+001 3.000000e+000
    endloop
  endfacet
  facet normal -0.000000e+000 0.000000e+000 1.000000e+000
    outer loop
      vertex   -1.594334e+001 1.659909e+001 3.000000e+000
      vertex   -1.417665e+001 1.557909e+001 3.000000e+000
      vertex   -1.406264e+001 1.575466e+001 3.000000e+000
    endloop
  endfacet
  facet normal 0.000000e+000 0.000000e+000 1.000000e+000
    outer loop
      vertex   -1.393089e+001 1.591735e+001 3.000000e+000
      vertex   -1.594334e+001 1.659909e+001 3.000000e+000
      vertex   -1.406264e+001 1.575466e+001 3.000000e+000
    endloop
  endfacet
  facet normal 0.000000e+000 -0.000000e+000 1.000000e+000
    outer loop
      vertex   -1.393089e+001 1.591735e+001 3.000000e+000
      vertex   -1.378286e+001 1.606538e+001 3.000000e+000
      vertex   -1.594334e+001 1.659909e+001 3.000000e+000
    endloop
  endfacet
  facet normal -0.000000e+000 0.000000e+000 1.000000e+000
    outer loop
      vertex   -1.594334e+001 1.659909e+001 3.000000e+000
      vertex   -1.378286e+001 1.606538e+001 3.000000e+000
      vertex   -1.362017e+001 1.619712e+001 3.000000e+000
    endloop
  endfacet
  facet normal 0.000000e+000 0.000000e+000 1.000000e+000
    outer loop
      vertex   -1.344460e+001 1.631114e+001 3.000000e+000
      vertex   -1.594334e+001 1.659909e+001 3.000000e+000
      vertex   -1.362017e+001 1.619712e+001 3.000000e+000
    endloop
  endfacet
  facet normal 0.000000e+000 -0.000000e+000 1.000000e+000
    outer loop
      vertex   -1.344460e+001 1.631114e+001 3.000000e+000
      vertex   -1.244460e+001 1.861909e+001 3.000000e+000
      vertex   -1.594334e+001 1.659909e+001 3.000000e+000
    endloop
  endfacet
  facet normal 0.000000e+000 0.000000e+000 1.000000e+000
    outer loop
      vertex   -1.344460e+001 1.631114e+001 3.000000e+000
      vertex   -1.325808e+001 1.640618e+001 3.000000e+000
      vertex   -1.244460e+001 1.861909e+001 3.000000e+000
    endloop
  endfacet
  facet normal -0.000000e+000 0.000000e+000 1.000000e+000
    outer loop
      vertex   -1.244460e+001 1.861909e+001 3.000000e+000
      vertex   -1.325808e+001 1.640618e+001 3.000000e+000
      vertex   -1.306264e+001 1.648120e+001 3.000000e+000
    endloop
  endfacet
  facet normal 0.000000e+000 -0.000000e+000 1.000000e+000
    outer loop
      vertex   -1.286043e+001 1.653538e+001 3.000000e+000
      vertex   -1.244460e+001 1.861909e+001 3.000000e+000
      vertex   -1.306264e+001 1.648120e+001 3.000000e+000
    endloop
  endfacet
  facet normal 0.000000e+000 0.000000e+000 1.000000e+000
    outer loop
      vertex   -1.286043e+001 1.653538e+001 3.000000e+000
      vertex   -1.265366e+001 1.656813e+001 3.000000e+000
      vertex   -1.244460e+001 1.861909e+001 3.000000e+000
    endloop
  endfacet
  facet normal -0.000000e+000 0.000000e+000 1.000000e+000
    outer loop
      vertex   -1.244460e+001 1.861909e+001 3.000000e+000
      vertex   -1.265366e+001 1.656813e+001 3.000000e+000
      vertex   -1.244460e+001 1.657909e+001 3.000000e+000
    endloop
  endfacet
  facet normal 0.000000e+000 0.000000e+000 1.000000e+000
    outer loop
      vertex   -1.223554e+001 1.656813e+001 3.000000e+000
      vertex   -1.244460e+001 1.861909e+001 3.000000e+000
      vertex   -1.244460e+001 1.657909e+001 3.000000e+000
    endloop
  endfacet
  facet normal -0.000000e+000 -0.000000e+000 1.000000e+000
    outer loop
      vertex   -1.223554e+001 1.656813e+001 3.000000e+000
      vertex   -1.202878e+001 1.653538e+001 3.000000e+000
      vertex   -1.244460e+001 1.861909e+001 3.000000e+000
    endloop
  endfacet
  facet normal 0.000000e+000 0.000000e+000 1.000000e+000
    outer loop
      vertex   -1.244460e+001 1.861909e+001 3.000000e+000
      vertex   -1.202878e+001 1.653538e+001 3.000000e+000
      vertex   -1.182657e+001 1.648120e+001 3.000000e+000
    endloop
  endfacet
  facet normal 0.000000e+000 0.000000e+000 1.000000e+000
    outer loop
      vertex   -1.163113e+001 1.640618e+001 3.000000e+000
      vertex   -1.244460e+001 1.861909e+001 3.000000e+000
      vertex   -1.182657e+001 1.648120e+001 3.000000e+000
    endloop
  endfacet
  facet normal -0.000000e+000 -0.000000e+000 1.000000e+000
    outer loop
      vertex   -1.163113e+001 1.640618e+001 3.000000e+000
      vertex   -1.144460e+001 1.631114e+001 3.000000e+000
      vertex   -1.244460e+001 1.861909e+001 3.000000e+000
    endloop
  endfacet
  facet normal -0.000000e+000 0.000000e+000 1.000000e+000
    outer loop
      vertex   -1.244460e+001 1.861909e+001 3.000000e+000
      vertex   -1.144460e+001 1.631114e+001 3.000000e+000
      vertex   -8.945859e+000 1.659909e+001 3.000000e+000
    endloop
  endfacet
  facet normal 0.000000e+000 0.000000e+000 1.000000e+000
    outer loop
      vertex   -8.945859e+000 1.659909e+001 3.000000e+000
      vertex   -1.144460e+001 1.631114e+001 3.000000e+000
      vertex   -1.126903e+001 1.619712e+001 3.000000e+000
    endloop
  endfacet
  facet normal 0.000000e+000 -0.000000e+000 1.000000e+000
    outer loop
      vertex   -1.110634e+001 1.606538e+001 3.000000e+000
      vertex   -8.945859e+000 1.659909e+001 3.000000e+000
      vertex   -1.126903e+001 1.619712e+001 3.000000e+000
    endloop
  endfacet
  facet normal -0.000000e+000 0.000000e+000 1.000000e+000
    outer loop
      vertex   -1.110634e+001 1.606538e+001 3.000000e+000
      vertex   -1.095831e+001 1.591735e+001 3.000000e+000
      vertex   -8.945859e+000 1.659909e+001 3.000000e+000
    endloop
  endfacet
  facet normal 0.000000e+000 0.000000e+000 1.000000e+000
    outer loop
      vertex   -8.945859e+000 1.659909e+001 3.000000e+000
      vertex   -1.095831e+001 1.591735e+001 3.000000e+000
      vertex   -1.082657e+001 1.575466e+001 3.000000e+000
    endloop
  endfacet
  facet normal 0.000000e+000 -0.000000e+000 1.000000e+000
    outer loop
      vertex   -1.071255e+001 1.557909e+001 3.000000e+000
      vertex   -8.945859e+000 1.659909e+001 3.000000e+000
      vertex   -1.082657e+001 1.575466e+001 3.000000e+000
    endloop
  endfacet
  facet normal -0.000000e+000 0.000000e+000 1.000000e+000
    outer loop
      vertex   -1.071255e+001 1.557909e+001 3.000000e+000
      vertex   -1.061751e+001 1.539256e+001 3.000000e+000
      vertex   -8.945859e+000 1.659909e+001 3.000000e+000
    endloop
  endfacet
  facet normal 0.000000e+000 0.000000e+000 1.000000e+000
    outer loop
      vertex   -8.945859e+000 1.659909e+001 3.000000e+000
      vertex   -1.061751e+001 1.539256e+001 3.000000e+000
      vertex   -1.054249e+001 1.519712e+001 3.000000e+000
    endloop
  endfacet
  facet normal 0.000000e+000 -0.000000e+000 1.000000e+000
    outer loop
      vertex   -1.048831e+001 1.499491e+001 3.000000e+000
      vertex   -8.945859e+000 1.659909e+001 3.000000e+000
      vertex   -1.054249e+001 1.519712e+001 3.000000e+000
    endloop
  endfacet
  facet normal -0.000000e+000 0.000000e+000 1.000000e+000
    outer loop
      vertex   -1.048831e+001 1.499491e+001 3.000000e+000
      vertex   -1.045556e+001 1.478815e+001 3.000000e+000
      vertex   -8.945859e+000 1.659909e+001 3.000000e+000
    endloop
  endfacet
  facet normal 0.000000e+000 0.000000e+000 1.000000e+000
    outer loop
      vertex   -8.945859e+000 1.659909e+001 3.000000e+000
      vertex   -1.045556e+001 1.478815e+001 3.000000e+000
      vertex   -1.044460e+001 1.457909e+001 3.000000e+000
    endloop
  endfacet
  facet normal 0.000000e+000 0.000000e+000 1.000000e+000
    outer loop
      vertex   -8.945859e+000 1.255909e+001 3.000000e+000
      vertex   -1.044460e+001 1.457909e+001 3.000000e+000
      vertex   -1.045556e+001 1.437003e+001 3.000000e+000
    endloop
  endfacet
  facet normal -0.000000e+000 -0.000000e+000 1.000000e+000
    outer loop
      vertex   -1.048831e+001 1.416327e+001 3.000000e+000
      vertex   -8.945859e+000 1.255909e+001 3.000000e+000
      vertex   -1.045556e+001 1.437003e+001 3.000000e+000
    endloop
  endfacet
  facet normal 0.000000e+000 0.000000e+000 1.000000e+000
    outer loop
      vertex   -1.048831e+001 1.416327e+001 3.000000e+000
      vertex   -1.054249e+001 1.396106e+001 3.000000e+000
      vertex   -8.945859e+000 1.255909e+001 3.000000e+000
    endloop
  endfacet
  facet normal 0.000000e+000 0.000000e+000 1.000000e+000
    outer loop
      vertex   -8.945859e+000 1.255909e+001 3.000000e+000
      vertex   -1.054249e+001 1.396106e+001 3.000000e+000
      vertex   -1.061751e+001 1.376562e+001 3.000000e+000
    endloop
  endfacet
  facet normal -0.000000e+000 -0.000000e+000 1.000000e+000
    outer loop
      vertex   -1.071255e+001 1.357909e+001 3.000000e+000
      vertex   -8.945859e+000 1.255909e+001 3.000000e+000
      vertex   -1.061751e+001 1.376562e+001 3.000000e+000
    endloop
  endfacet
  facet normal 0.000000e+000 0.000000e+000 1.000000e+000
    outer loop
      vertex   -1.071255e+001 1.357909e+001 3.000000e+000
      vertex   -1.082657e+001 1.340352e+001 3.000000e+000
      vertex   -8.945859e+000 1.255909e+001 3.000000e+000
    endloop
  endfacet
  facet normal 0.000000e+000 0.000000e+000 1.000000e+000
    outer loop
      vertex   -8.945859e+000 1.255909e+001 3.000000e+000
      vertex   -1.082657e+001 1.340352e+001 3.000000e+000
      vertex   -1.095831e+001 1.324083e+001 3.000000e+000
    endloop
  endfacet
  facet normal -0.000000e+000 -0.000000e+000 1.000000e+000
    outer loop
      vertex   -1.110634e+001 1.309280e+001 3.000000e+000
      vertex   -8.945859e+000 1.255909e+001 3.000000e+000
      vertex   -1.095831e+001 1.324083e+001 3.000000e+000
    endloop
  endfacet
  facet normal 0.000000e+000 0.000000e+000 1.000000e+000
    outer loop
      vertex   -1.110634e+001 1.309280e+001 3.000000e+000
      vertex   -1.126903e+001 1.296106e+001 3.000000e+000
      vertex   -8.945859e+000 1.255909e+001 3.000000e+000
    endloop
  endfacet
  facet normal 0.000000e+000 0.000000e+000 1.000000e+000
    outer loop
      vertex   -8.945859e+000 1.255909e+001 3.000000e+000
      vertex   -1.126903e+001 1.296106e+001 3.000000e+000
      vertex   -1.144460e+001 1.284704e+001 3.000000e+000
    endloop
  endfacet
  facet normal 0.000000e+000 -0.000000e+000 1.000000e+000
    outer loop
      vertex   -1.244460e+001 1.053909e+001 3.000000e+000
      vertex   -1.144460e+001 1.284704e+001 3.000000e+000
      vertex   -1.163113e+001 1.275200e+001 3.000000e+000
    endloop
  endfacet
  facet normal -0.000000e+000 0.000000e+000 1.000000e+000
    outer loop
      vertex   -1.182657e+001 1.267698e+001 3.000000e+000
      vertex   -1.244460e+001 1.053909e+001 3.000000e+000
      vertex   -1.163113e+001 1.275200e+001 3.000000e+000
    endloop
  endfacet
  facet normal 0.000000e+000 0.000000e+000 1.000000e+000
    outer loop
      vertex   -1.182657e+001 1.267698e+001 3.000000e+000
      vertex   -1.202878e+001 1.262279e+001 3.000000e+000
      vertex   -1.244460e+001 1.053909e+001 3.000000e+000
    endloop
  endfacet
  facet normal 0.000000e+000 -0.000000e+000 1.000000e+000
    outer loop
      vertex   -1.244460e+001 1.053909e+001 3.000000e+000
      vertex   -1.202878e+001 1.262279e+001 3.000000e+000
      vertex   -1.223554e+001 1.259005e+001 3.000000e+000
    endloop
  endfacet
  facet normal -0.000000e+000 0.000000e+000 1.000000e+000
    outer loop
      vertex   -1.244460e+001 1.257909e+001 3.000000e+000
      vertex   -1.244460e+001 1.053909e+001 3.000000e+000
      vertex   -1.223554e+001 1.259005e+001 3.000000e+000
    endloop
  endfacet
  facet normal 0.000000e+000 0.000000e+000 1.000000e+000
    outer loop
      vertex   -1.244460e+001 1.257909e+001 3.000000e+000
      vertex   -1.265366e+001 1.259005e+001 3.000000e+000
      vertex   -1.244460e+001 1.053909e+001 3.000000e+000
    endloop
  endfacet
  facet normal 0.000000e+000 0.000000e+000 1.000000e+000
    outer loop
      vertex   -1.244460e+001 1.053909e+001 3.000000e+000
      vertex   -1.265366e+001 1.259005e+001 3.000000e+000
      vertex   -1.286043e+001 1.262279e+001 3.000000e+000
    endloop
  endfacet
  facet normal -0.000000e+000 -0.000000e+000 1.000000e+000
    outer loop
      vertex   -1.306264e+001 1.267698e+001 3.000000e+000
      vertex   -1.244460e+001 1.053909e+001 3.000000e+000
      vertex   -1.286043e+001 1.262279e+001 3.000000e+000
    endloop
  endfacet
  facet normal 0.000000e+000 0.000000e+000 1.000000e+000
    outer loop
      vertex   -1.306264e+001 1.267698e+001 3.000000e+000
      vertex   -1.325808e+001 1.275200e+001 3.000000e+000
      vertex   -1.244460e+001 1.053909e+001 3.000000e+000
    endloop
  endfacet
  facet normal 0.000000e+000 0.000000e+000 1.000000e+000
    outer loop
      vertex   -1.244460e+001 1.053909e+001 3.000000e+000
      vertex   -1.325808e+001 1.275200e+001 3.000000e+000
      vertex   -1.344460e+001 1.284704e+001 3.000000e+000
    endloop
  endfacet
  facet normal 0.000000e+000 -0.000000e+000 1.000000e+000
    outer loop
      vertex   -1.594334e+001 1.255909e+001 3.000000e+000
      vertex   -1.344460e+001 1.284704e+001 3.000000e+000
      vertex   -1.362017e+001 1.296106e+001 3.000000e+000
    endloop
  endfacet
  facet normal -0.000000e+000 0.000000e+000 1.000000e+000
    outer loop
      vertex   -1.378286e+001 1.309280e+001 3.000000e+000
      vertex   -1.594334e+001 1.255909e+001 3.000000e+000
      vertex   -1.362017e+001 1.296106e+001 3.000000e+000
    endloop
  endfacet
  facet normal 0.000000e+000 0.000000e+000 1.000000e+000
    outer loop
      vertex   -1.378286e+001 1.309280e+001 3.000000e+000
      vertex   -1.393089e+001 1.324083e+001 3.000000e+000
      vertex   -1.594334e+001 1.255909e+001 3.000000e+000
    endloop
  endfacet
  facet normal 0.000000e+000 -0.000000e+000 1.000000e+000
    outer loop
      vertex   -1.594334e+001 1.255909e+001 3.000000e+000
      vertex   -1.393089e+001 1.324083e+001 3.000000e+000
      vertex   -1.406264e+001 1.340352e+001 3.000000e+000
    endloop
  endfacet
  facet normal -0.000000e+000 0.000000e+000 1.000000e+000
    outer loop
      vertex   -1.417665e+001 1.357909e+001 3.000000e+000
      vertex   -1.594334e+001 1.255909e+001 3.000000e+000
      vertex   -1.406264e+001 1.340352e+001 3.000000e+000
    endloop
  endfacet
  facet normal 0.000000e+000 0.000000e+000 1.000000e+000
    outer loop
      vertex   -1.417665e+001 1.357909e+001 3.000000e+000
      vertex   -1.427169e+001 1.376562e+001 3.000000e+000
      vertex   -1.594334e+001 1.255909e+001 3.000000e+000
    endloop
  endfacet
  facet normal 0.000000e+000 -0.000000e+000 1.000000e+000
    outer loop
      vertex   -1.594334e+001 1.255909e+001 3.000000e+000
      vertex   -1.427169e+001 1.376562e+001 3.000000e+000
      vertex   -1.434671e+001 1.396106e+001 3.000000e+000
    endloop
  endfacet
  facet normal -0.000000e+000 0.000000e+000 1.000000e+000
    outer loop
      vertex   -1.440090e+001 1.416327e+001 3.000000e+000
      vertex   -1.594334e+001 1.255909e+001 3.000000e+000
      vertex   -1.434671e+001 1.396106e+001 3.000000e+000
    endloop
  endfacet
  facet normal 0.000000e+000 0.000000e+000 1.000000e+000
    outer loop
      vertex   -1.440090e+001 1.416327e+001 3.000000e+000
      vertex   -1.443365e+001 1.437003e+001 3.000000e+000
      vertex   -1.594334e+001 1.255909e+001 3.000000e+000
    endloop
  endfacet
  facet normal 0.000000e+000 -0.000000e+000 1.000000e+000
    outer loop
      vertex   -1.594334e+001 1.255909e+001 3.000000e+000
      vertex   -1.443365e+001 1.437003e+001 3.000000e+000
      vertex   -1.444460e+001 1.457909e+001 3.000000e+000
    endloop
  endfacet
  facet normal -0.000000e+000 0.000000e+000 1.000000e+000
    outer loop
      vertex   -1.594334e+001 1.659909e+001 3.000000e+000
      vertex   -1.594334e+001 1.255909e+001 3.000000e+000
      vertex   -1.444460e+001 1.457909e+001 3.000000e+000
    endloop
  endfacet
  facet normal 0.000000e+000 0.000000e+000 1.000000e+000
    outer loop
      vertex   -8.945859e+000 1.659909e+001 3.000000e+000
      vertex   -1.044460e+001 1.457909e+001 3.000000e+000
      vertex   -8.945859e+000 1.255909e+001 3.000000e+000
    endloop
  endfacet
  facet normal 0.000000e+000 0.000000e+000 1.000000e+000
    outer loop
      vertex   -8.945859e+000 1.255909e+001 3.000000e+000
      vertex   -1.144460e+001 1.284704e+001 3.000000e+000
      vertex   -1.244460e+001 1.053909e+001 3.000000e+000
    endloop
  endfacet
  facet normal 0.000000e+000 0.000000e+000 1.000000e+000
    outer loop
      vertex   -1.244460e+001 1.053909e+001 3.000000e+000
      vertex   -1.344460e+001 1.284704e+001 3.000000e+000
      vertex   -1.594334e+001 1.255909e+001 3.000000e+000
    endloop
  endfacet
  facet normal -0.000000e+000 0.000000e+000 -1.000000e+000
    outer loop
      vertex   -1.443365e+001 1.437003e+001 0.000000e+000
      vertex   -1.594334e+001 1.255909e+001 0.000000e+000
      vertex   -1.444460e+001 1.457909e+001 0.000000e+000
    endloop
  endfacet
  facet normal 0.000000e+000 -0.000000e+000 -1.000000e+000
    outer loop
      vertex   -1.443365e+001 1.437003e+001 0.000000e+000
      vertex   -1.440090e+001 1.416327e+001 0.000000e+000
      vertex   -1.594334e+001 1.255909e+001 0.000000e+000
    endloop
  endfacet
  facet normal 0.000000e+000 0.000000e+000 -1.000000e+000
    outer loop
      vertex   -1.594334e+001 1.255909e+001 0.000000e+000
      vertex   -1.440090e+001 1.416327e+001 0.000000e+000
      vertex   -1.434671e+001 1.396106e+001 0.000000e+000
    endloop
  endfacet
  facet normal -0.000000e+000 0.000000e+000 -1.000000e+000
    outer loop
      vertex   -1.427169e+001 1.376562e+001 0.000000e+000
      vertex   -1.594334e+001 1.255909e+001 0.000000e+000
      vertex   -1.434671e+001 1.396106e+001 0.000000e+000
    endloop
  endfacet
  facet normal 0.000000e+000 -0.000000e+000 -1.000000e+000
    outer loop
      vertex   -1.427169e+001 1.376562e+001 0.000000e+000
      vertex   -1.417665e+001 1.357909e+001 0.000000e+000
      vertex   -1.594334e+001 1.255909e+001 0.000000e+000
    endloop
  endfacet
  facet normal 0.000000e+000 0.000000e+000 -1.000000e+000
    outer loop
      vertex   -1.594334e+001 1.255909e+001 0.000000e+000
      vertex   -1.417665e+001 1.357909e+001 0.000000e+000
      vertex   -1.406264e+001 1.340352e+001 0.000000e+000
    endloop
  endfacet
  facet normal -0.000000e+000 0.000000e+000 -1.000000e+000
    outer loop
      vertex   -1.393089e+001 1.324083e+001 0.000000e+000
      vertex   -1.594334e+001 1.255909e+001 0.000000e+000
      vertex   -1.406264e+001 1.340352e+001 0.000000e+000
    endloop
  endfacet
  facet normal 0.000000e+000 -0.000000e+000 -1.000000e+000
    outer loop
      vertex   -1.393089e+001 1.324083e+001 0.000000e+000
      vertex   -1.378286e+001 1.309280e+001 0.000000e+000
      vertex   -1.594334e+001 1.255909e+001 0.000000e+000
    endloop
  endfacet
  facet normal 0.000000e+000 0.000000e+000 -1.000000e+000
    outer loop
      vertex   -1.594334e+001 1.255909e+001 0.000000e+000
      vertex   -1.378286e+001 1.309280e+001 0.000000e+000
      vertex   -1.362017e+001 1.296106e+001 0.000000e+000
    endloop
  endfacet
  facet normal -0.000000e+000 0.000000e+000 -1.000000e+000
    outer loop
      vertex   -1.344460e+001 1.284704e+001 0.000000e+000
      vertex   -1.594334e+001 1.255909e+001 0.000000e+000
      vertex   -1.362017e+001 1.296106e+001 0.000000e+000
    endloop
  endfacet
  facet normal -0.000000e+000 -0.000000e+000 -1.000000e+000
    outer loop
      vertex   -1.344460e+001 1.284704e+001 0.000000e+000
      vertex   -1.244460e+001 1.053909e+001 0.000000e+000
      vertex   -1.594334e+001 1.255909e+001 0.000000e+000
    endloop
  endfacet
  facet normal 0.000000e+000 0.000000e+000 -1.000000e+000
    outer loop
      vertex   -1.344460e+001 1.284704e+001 0.000000e+000
      vertex   -1.325808e+001 1.275200e+001 0.000000e+000
      vertex   -1.244460e+001 1.053909e+001 0.000000e+000
    endloop
  endfacet
  facet normal 0.000000e+000 0.000000e+000 -1.000000e+000
    outer loop
      vertex   -1.244460e+001 1.053909e+001 0.000000e+000
      vertex   -1.325808e+001 1.275200e+001 0.000000e+000
      vertex   -1.306264e+001 1.267698e+001 0.000000e+000
    endloop
  endfacet
  facet normal -0.000000e+000 -0.000000e+000 -1.000000e+000
    outer loop
      vertex   -1.286043e+001 1.262279e+001 0.000000e+000
      vertex   -1.244460e+001 1.053909e+001 0.000000e+000
      vertex   -1.306264e+001 1.267698e+001 0.000000e+000
    endloop
  endfacet
  facet normal 0.000000e+000 0.000000e+000 -1.000000e+000
    outer loop
      vertex   -1.286043e+001 1.262279e+001 0.000000e+000
      vertex   -1.265366e+001 1.259005e+001 0.000000e+000
      vertex   -1.244460e+001 1.053909e+001 0.000000e+000
    endloop
  endfacet
  facet normal 0.000000e+000 0.000000e+000 -1.000000e+000
    outer loop
      vertex   -1.244460e+001 1.053909e+001 0.000000e+000
      vertex   -1.265366e+001 1.259005e+001 0.000000e+000
      vertex   -1.244460e+001 1.257909e+001 0.000000e+000
    endloop
  endfacet
  facet normal -0.000000e+000 0.000000e+000 -1.000000e+000
    outer loop
      vertex   -1.223554e+001 1.259005e+001 0.000000e+000
      vertex   -1.244460e+001 1.053909e+001 0.000000e+000
      vertex   -1.244460e+001 1.257909e+001 0.000000e+000
    endloop
  endfacet
  facet normal 0.000000e+000 -0.000000e+000 -1.000000e+000
    outer loop
      vertex   -1.223554e+001 1.259005e+001 0.000000e+000
      vertex   -1.202878e+001 1.262279e+001 0.000000e+000
      vertex   -1.244460e+001 1.053909e+001 0.000000e+000
    endloop
  endfacet
  facet normal 0.000000e+000 0.000000e+000 -1.000000e+000
    outer loop
      vertex   -1.244460e+001 1.053909e+001 0.000000e+000
      vertex   -1.202878e+001 1.262279e+001 0.000000e+000
      vertex   -1.182657e+001 1.267698e+001 0.000000e+000
    endloop
  endfacet
  facet normal -0.000000e+000 0.000000e+000 -1.000000e+000
    outer loop
      vertex   -1.163113e+001 1.275200e+001 0.000000e+000
      vertex   -1.244460e+001 1.053909e+001 0.000000e+000
      vertex   -1.182657e+001 1.267698e+001 0.000000e+000
    endloop
  endfacet
  facet normal 0.000000e+000 -0.000000e+000 -1.000000e+000
    outer loop
      vertex   -1.163113e+001 1.275200e+001 0.000000e+000
      vertex   -1.144460e+001 1.284704e+001 0.000000e+000
      vertex   -1.244460e+001 1.053909e+001 0.000000e+000
    endloop
  endfacet
  facet normal 0.000000e+000 0.000000e+000 -1.000000e+000
    outer loop
      vertex   -1.244460e+001 1.053909e+001 0.000000e+000
      vertex   -1.144460e+001 1.284704e+001 0.000000e+000
      vertex   -8.945859e+000 1.255909e+001 0.000000e+000
    endloop
  endfacet
  facet normal 0.000000e+000 0.000000e+000 -1.000000e+000
    outer loop
      vertex   -8.945859e+000 1.255909e+001 0.000000e+000
      vertex   -1.144460e+001 1.284704e+001 0.000000e+000
      vertex   -1.126903e+001 1.296106e+001 0.000000e+000
    endloop
  endfacet
  facet normal -0.000000e+000 -0.000000e+000 -1.000000e+000
    outer loop
      vertex   -1.110634e+001 1.309280e+001 0.000000e+000
      vertex   -8.945859e+000 1.255909e+001 0.000000e+000
      vertex   -1.126903e+001 1.296106e+001 0.000000e+000
    endloop
  endfacet
  facet normal 0.000000e+000 0.000000e+000 -1.000000e+000
    outer loop
      vertex   -1.110634e+001 1.309280e+001 0.000000e+000
      vertex   -1.095831e+001 1.324083e+001 0.000000e+000
      vertex   -8.945859e+000 1.255909e+001 0.000000e+000
    endloop
  endfacet
  facet normal 0.000000e+000 0.000000e+000 -1.000000e+000
    outer loop
      vertex   -8.945859e+000 1.255909e+001 0.000000e+000
      vertex   -1.095831e+001 1.324083e+001 0.000000e+000
      vertex   -1.082657e+001 1.340352e+001 0.000000e+000
    endloop
  endfacet
  facet normal -0.000000e+000 -0.000000e+000 -1.000000e+000
    outer loop
      vertex   -1.071255e+001 1.357909e+001 0.000000e+000
      vertex   -8.945859e+000 1.255909e+001 0.000000e+000
      vertex   -1.082657e+001 1.340352e+001 0.000000e+000
    endloop
  endfacet
  facet normal 0.000000e+000 0.000000e+000 -1.000000e+000
    outer loop
      vertex   -1.071255e+001 1.357909e+001 0.000000e+000
      vertex   -1.061751e+001 1.376562e+001 0.000000e+000
      vertex   -8.945859e+000 1.255909e+001 0.000000e+000
    endloop
  endfacet
  facet normal 0.000000e+000 0.000000e+000 -1.000000e+000
    outer loop
      vertex   -8.945859e+000 1.255909e+001 0.000000e+000
      vertex   -1.061751e+001 1.376562e+001 0.000000e+000
      vertex   -1.054249e+001 1.396106e+001 0.000000e+000
    endloop
  endfacet
  facet normal -0.000000e+000 -0.000000e+000 -1.000000e+000
    outer loop
      vertex   -1.048831e+001 1.416327e+001 0.000000e+000
      vertex   -8.945859e+000 1.255909e+001 0.000000e+000
      vertex   -1.054249e+001 1.396106e+001 0.000000e+000
    endloop
  endfacet
  facet normal 0.000000e+000 0.000000e+000 -1.000000e+000
    outer loop
      vertex   -1.048831e+001 1.416327e+001 0.000000e+000
      vertex   -1.045556e+001 1.437003e+001 0.000000e+000
      vertex   -8.945859e+000 1.255909e+001 0.000000e+000
    endloop
  endfacet
  facet normal 0.000000e+000 0.000000e+000 -1.000000e+000
    outer loop
      vertex   -8.945859e+000 1.255909e+001 0.000000e+000
      vertex   -1.045556e+001 1.437003e+001 0.000000e+000
      vertex   -1.044460e+001 1.457909e+001 0.000000e+000
    endloop
  endfacet
  facet normal -0.000000e+000 0.000000e+000 -1.000000e+000
    outer loop
      vertex   -8.945859e+000 1.659909e+001 0.000000e+000
      vertex   -1.044460e+001 1.457909e+001 0.000000e+000
      vertex   -1.045556e+001 1.478815e+001 0.000000e+000
    endloop
  endfacet
  facet normal 0.000000e+000 -0.000000e+000 -1.000000e+000
    outer loop
      vertex   -1.048831e+001 1.499491e+001 0.000000e+000
      vertex   -8.945859e+000 1.659909e+001 0.000000e+000
      vertex   -1.045556e+001 1.478815e+001 0.000000e+000
    endloop
  endfacet
  facet normal 0.000000e+000 0.000000e+000 -1.000000e+000
    outer loop
      vertex   -1.048831e+001 1.499491e+001 0.000000e+000
      vertex   -1.054249e+001 1.519712e+001 0.000000e+000
      vertex   -8.945859e+000 1.659909e+001 0.000000e+000
    endloop
  endfacet
  facet normal -0.000000e+000 0.000000e+000 -1.000000e+000
    outer loop
      vertex   -8.945859e+000 1.659909e+001 0.000000e+000
      vertex   -1.054249e+001 1.519712e+001 0.000000e+000
      vertex   -1.061751e+001 1.539256e+001 0.000000e+000
    endloop
  endfacet
  facet normal 0.000000e+000 -0.000000e+000 -1.000000e+000
    outer loop
      vertex   -1.071255e+001 1.557909e+001 0.000000e+000
      vertex   -8.945859e+000 1.659909e+001 0.000000e+000
      vertex   -1.061751e+001 1.539256e+001 0.000000e+000
    endloop
  endfacet
  facet normal 0.000000e+000 0.000000e+000 -1.000000e+000
    outer loop
      vertex   -1.071255e+001 1.557909e+001 0.000000e+000
      vertex   -1.082657e+001 1.575466e+001 0.000000e+000
      vertex   -8.945859e+000 1.659909e+001 0.000000e+000
    endloop
  endfacet
  facet normal -0.000000e+000 0.000000e+000 -1.000000e+000
    outer loop
      vertex   -8.945859e+000 1.659909e+001 0.000000e+000
      vertex   -1.082657e+001 1.575466e+001 0.000000e+000
      vertex   -1.095831e+001 1.591735e+001 0.000000e+000
    endloop
  endfacet
  facet normal 0.000000e+000 -0.000000e+000 -1.000000e+000
    outer loop
      vertex   -1.110634e+001 1.606538e+001 0.000000e+000
      vertex   -8.945859e+000 1.659909e+001 0.000000e+000
      vertex   -1.095831e+001 1.591735e+001 0.000000e+000
    endloop
  endfacet
  facet normal 0.000000e+000 0.000000e+000 -1.000000e+000
    outer loop
      vertex   -1.110634e+001 1.606538e+001 0.000000e+000
      vertex   -1.126903e+001 1.619712e+001 0.000000e+000
      vertex   -8.945859e+000 1.659909e+001 0.000000e+000
    endloop
  endfacet
  facet normal -0.000000e+000 0.000000e+000 -1.000000e+000
    outer loop
      vertex   -8.945859e+000 1.659909e+001 0.000000e+000
      vertex   -1.126903e+001 1.619712e+001 0.000000e+000
      vertex   -1.144460e+001 1.631114e+001 0.000000e+000
    endloop
  endfacet
  facet normal -0.000000e+000 -0.000000e+000 -1.000000e+000
    outer loop
      vertex   -1.244460e+001 1.861909e+001 0.000000e+000
      vertex   -1.144460e+001 1.631114e+001 0.000000e+000
      vertex   -1.163113e+001 1.640618e+001 0.000000e+000
    endloop
  endfacet
  facet normal 0.000000e+000 0.000000e+000 -1.000000e+000
    outer loop
      vertex   -1.182657e+001 1.648120e+001 0.000000e+000
      vertex   -1.244460e+001 1.861909e+001 0.000000e+000
      vertex   -1.163113e+001 1.640618e+001 0.000000e+000
    endloop
  endfacet
  facet normal 0.000000e+000 0.000000e+000 -1.000000e+000
    outer loop
      vertex   -1.182657e+001 1.648120e+001 0.000000e+000
      vertex   -1.202878e+001 1.653538e+001 0.000000e+000
      vertex   -1.244460e+001 1.861909e+001 0.000000e+000
    endloop
  endfacet
  facet normal -0.000000e+000 -0.000000e+000 -1.000000e+000
    outer loop
      vertex   -1.244460e+001 1.861909e+001 0.000000e+000
      vertex   -1.202878e+001 1.653538e+001 0.000000e+000
      vertex   -1.223554e+001 1.656813e+001 0.000000e+000
    endloop
  endfacet
  facet normal 0.000000e+000 0.000000e+000 -1.000000e+000
    outer loop
      vertex   -1.244460e+001 1.657909e+001 0.000000e+000
      vertex   -1.244460e+001 1.861909e+001 0.000000e+000
      vertex   -1.223554e+001 1.656813e+001 0.000000e+000
    endloop
  endfacet
  facet normal -0.000000e+000 0.000000e+000 -1.000000e+000
    outer loop
      vertex   -1.244460e+001 1.657909e+001 0.000000e+000
      vertex   -1.265366e+001 1.656813e+001 0.000000e+000
      vertex   -1.244460e+001 1.861909e+001 0.000000e+000
    endloop
  endfacet
  facet normal 0.000000e+000 0.000000e+000 -1.000000e+000
    outer loop
      vertex   -1.244460e+001 1.861909e+001 0.000000e+000
      vertex   -1.265366e+001 1.656813e+001 0.000000e+000
      vertex   -1.286043e+001 1.653538e+001 0.000000e+000
    endloop
  endfacet
  facet normal 0.000000e+000 -0.000000e+000 -1.000000e+000
    outer loop
      vertex   -1.306264e+001 1.648120e+001 0.000000e+000
      vertex   -1.244460e+001 1.861909e+001 0.000000e+000
      vertex   -1.286043e+001 1.653538e+001 0.000000e+000
    endloop
  endfacet
  facet normal -0.000000e+000 0.000000e+000 -1.000000e+000
    outer loop
      vertex   -1.306264e+001 1.648120e+001 0.000000e+000
      vertex   -1.325808e+001 1.640618e+001 0.000000e+000
      vertex   -1.244460e+001 1.861909e+001 0.000000e+000
    endloop
  endfacet
  facet normal 0.000000e+000 0.000000e+000 -1.000000e+000
    outer loop
      vertex   -1.244460e+001 1.861909e+001 0.000000e+000
      vertex   -1.325808e+001 1.640618e+001 0.000000e+000
      vertex   -1.344460e+001 1.631114e+001 0.000000e+000
    endloop
  endfacet
  facet normal 0.000000e+000 -0.000000e+000 -1.000000e+000
    outer loop
      vertex   -1.594334e+001 1.659909e+001 0.000000e+000
      vertex   -1.344460e+001 1.631114e+001 0.000000e+000
      vertex   -1.362017e+001 1.619712e+001 0.000000e+000
    endloop
  endfacet
  facet normal 0.000000e+000 0.000000e+000 -1.000000e+000
    outer loop
      vertex   -1.378286e+001 1.606538e+001 0.000000e+000
      vertex   -1.594334e+001 1.659909e+001 0.000000e+000
      vertex   -1.362017e+001 1.619712e+001 0.000000e+000
    endloop
  endfacet
  facet normal -0.000000e+000 0.000000e+000 -1.000000e+000
    outer loop
      vertex   -1.378286e+001 1.606538e+001 0.000000e+000
      vertex   -1.393089e+001 1.591735e+001 0.000000e+000
      vertex   -1.594334e+001 1.659909e+001 0.000000e+000
    endloop
  endfacet
  facet normal 0.000000e+000 -0.000000e+000 -1.000000e+000
    outer loop
      vertex   -1.594334e+001 1.659909e+001 0.000000e+000
      vertex   -1.393089e+001 1.591735e+001 0.000000e+000
      vertex   -1.406264e+001 1.575466e+001 0.000000e+000
    endloop
  endfacet
  facet normal 0.000000e+000 0.000000e+000 -1.000000e+000
    outer loop
      vertex   -1.417665e+001 1.557909e+001 0.000000e+000
      vertex   -1.594334e+001 1.659909e+001 0.000000e+000
      vertex   -1.406264e+001 1.575466e+001 0.000000e+000
    endloop
  endfacet
  facet normal -0.000000e+000 0.000000e+000 -1.000000e+000
    outer loop
      vertex   -1.417665e+001 1.557909e+001 0.000000e+000
      vertex   -1.427169e+001 1.539256e+001 0.000000e+000
      vertex   -1.594334e+001 1.659909e+001 0.000000e+000
    endloop
  endfacet
  facet normal 0.000000e+000 -0.000000e+000 -1.000000e+000
    outer loop
      vertex   -1.594334e+001 1.659909e+001 0.000000e+000
      vertex   -1.427169e+001 1.539256e+001 0.000000e+000
      vertex   -1.434671e+001 1.519712e+001 0.000000e+000
    endloop
  endfacet
  facet normal 0.000000e+000 0.000000e+000 -1.000000e+000
    outer loop
      vertex   -1.440090e+001 1.499491e+001 0.000000e+000
      vertex   -1.594334e+001 1.659909e+001 0.000000e+000
      vertex   -1.434671e+001 1.519712e+001 0.000000e+000
    endloop
  endfacet
  facet normal -0.000000e+000 0.000000e+000 -1.000000e+000
    outer loop
      vertex   -1.440090e+001 1.499491e+001 0.000000e+000
      vertex   -1.443365e+001 1.478815e+001 0.000000e+000
      vertex   -1.594334e+001 1.659909e+001 0.000000e+000
    endloop
  endfacet
  facet normal 0.000000e+000 -0.000000e+000 -1.000000e+000
    outer loop
      vertex   -1.594334e+001 1.659909e+001 0.000000e+000
      vertex   -1.443365e+001 1.478815e+001 0.000000e+000
      vertex   -1.444460e+001 1.457909e+001 0.000000e+000
    endloop
  endfacet
  facet normal 0.000000e+000 0.000000e+000 -1.000000e+000
    outer loop
      vertex   -1.594334e+001 1.255909e+001 0.000000e+000
      vertex   -1.594334e+001 1.659909e+001 0.000000e+000
      vertex   -1.444460e+001 1.457909e+001 0.000000e+000
    endloop
  endfacet
  facet normal 0.000000e+000 0.000000e+000 -1.000000e+000
    outer loop
      vertex   -8.945859e+000 1.255909e+001 0.000000e+000
      vertex   -1.044460e+001 1.457909e+001 0.000000e+000
      vertex   -8.945859e+000 1.659909e+001 0.000000e+000
    endloop
  endfacet
  facet normal -0.000000e+000 0.000000e+000 -1.000000e+000
    outer loop
      vertex   -8.945859e+000 1.659909e+001 0.000000e+000
      vertex   -1.144460e+001 1.631114e+001 0.000000e+000
      vertex   -1.244460e+001 1.861909e+001 0.000000e+000
    endloop
  endfacet
  facet normal -0.000000e+000 0.000000e+000 -1.000000e+000
    outer loop
      vertex   -1.244460e+001 1.861909e+001 0.000000e+000
      vertex   -1.344460e+001 1.631114e+001 0.000000e+000
      vertex   -1.594334e+001 1.659909e+001 0.000000e+000
    endloop
  endfacet
endsolid
